<svg width="16.000000" height="19.191895" viewBox="0 0 16 19.1919" fill="none" xmlns="http://www.w3.org/2000/svg" xmlns:xlink="http://www.w3.org/1999/xlink">
	<desc>
			Created with Pixso.
	</desc>
	<defs/>
	<path id="Shape Copy 7" d="M12.48 14.0383L13.5344 14.0383L13.5468 13.4265C13.5468 13.1544 13.3225 12.9323 13.0492 12.9323L12.9817 12.9323C12.7084 12.9323 12.4851 13.1543 12.4851 13.4265L12.48 14.0383ZM9.58118 12.7271C9.31458 12.7271 9.0957 12.9069 9.0957 13.1267L9.0957 16.1023C9.0957 16.322 9.31458 16.5007 9.58118 16.5007C9.84973 16.5007 10.0686 16.322 10.0686 16.1023L10.0686 13.1263C10.0686 12.9069 9.84973 12.7271 9.58118 12.7271ZM16 11.063C16 9.70532 14.8221 8.59375 13.3822 8.59375L2.61804 8.59375C1.17761 8.59375 0 9.70508 0 11.063L0 16.7231C0 18.0808 1.17749 19.1919 2.61804 19.1919L13.382 19.1919C14.8223 19.1919 16 18.0812 16 16.7231L16 11.063ZM3.33569 17.3376L3.33521 11.3754L4.66943 11.3759L4.66943 10.4922L1.11255 10.4867L1.11255 11.355L2.22302 11.3584L2.22302 17.3376L3.33569 17.3376ZM7.33545 12.2638L6.22314 12.2638L6.22314 15.4475C6.22314 15.6305 6.22754 15.7772 6.23096 15.8926C6.23315 15.9674 6.23499 16.0291 6.23499 16.079C6.23499 16.1459 6.23169 16.1917 6.22168 16.2196C6.13086 16.4666 5.72412 16.7286 5.56592 16.2465C5.55615 16.2158 5.5531 16.1627 5.5531 16.0867C5.5531 16.0327 5.55469 15.9673 5.55652 15.8899C5.55908 15.7787 5.56238 15.6431 5.56238 15.4824L5.56238 15.4692L5.55713 12.2635L4.45081 12.2635L4.45496 15.4186L4.45496 15.4485C4.45496 15.6049 4.45374 15.7478 4.45276 15.875C4.4519 15.9768 4.45105 16.0685 4.45105 16.1487C4.45105 16.2686 4.45276 16.3628 4.4585 16.427C4.48572 16.7164 4.47559 17.0541 4.74475 17.2463C5.245 17.6072 6.20435 17.1926 6.44434 16.6775L6.44226 17.3347L7.33545 17.3361L7.33545 12.2638ZM10.8948 15.9095L10.8927 13.2595C10.8916 12.2493 10.136 11.6444 9.10938 12.4617L9.11401 10.4913L8.00256 10.493L7.99707 17.2932L8.91089 17.2798L8.99402 16.856C10.1606 17.9268 10.8948 17.196 10.8948 15.9148L10.8948 15.9095ZM14.3771 15.5585L13.5425 15.5629C13.5425 15.5962 13.5409 15.6342 13.5404 15.6759L13.5404 16.1412C13.5404 16.3903 13.3347 16.593 13.0846 16.593L12.9213 16.593C12.6707 16.593 12.465 16.3903 12.465 16.1412L12.465 14.917L14.3752 14.917L14.3752 14.1982C14.3752 13.6733 14.3616 13.1483 14.3182 12.8481C14.1818 11.8981 12.848 11.7474 12.174 12.2336C11.9624 12.3856 11.801 12.5889 11.7067 12.8623C11.6119 13.1355 11.5649 13.5083 11.5649 13.9824L11.5649 15.5624C11.5657 18.0414 14.4084 17.85 14.4084 15.9213C14.4084 15.8065 14.3984 15.6854 14.3771 15.5585ZM10.0978 6.97974C10.1548 7.11951 10.2439 7.23218 10.3654 7.31787C10.4844 7.40137 10.6377 7.44397 10.8206 7.44397C10.9808 7.44397 11.123 7.40063 11.2463 7.31116C11.37 7.22217 11.4742 7.0896 11.5588 6.91211L11.5377 7.34863L12.7777 7.34863L12.7777 2.0769L11.8015 2.0769L11.8015 6.17981C11.8015 6.40161 11.618 6.5835 11.3942 6.5835C11.172 6.5835 10.9879 6.40161 10.9879 6.17981L10.9879 2.0769L9.96936 2.0769L9.96936 5.63232C9.96936 6.08545 9.97742 6.38745 9.99097 6.54065C10.0056 6.69287 10.0405 6.83862 10.0978 6.97974ZM6.46582 2.81641C6.3822 3.10132 6.33984 3.49622 6.33984 4.00232L6.34009 4.00232L6.34009 5.39819C6.34009 5.86047 6.3623 6.20691 6.4093 6.43774C6.45544 6.66833 6.5321 6.86621 6.64209 7.02869C6.75012 7.19092 6.90247 7.31323 7.09912 7.39429C7.29492 7.47595 7.53345 7.51501 7.8158 7.51501C8.06921 7.51501 8.29297 7.46851 8.48853 7.37341C8.68262 7.27942 8.84265 7.1322 8.96655 6.93506C9.09192 6.73621 9.17297 6.52393 9.21033 6.2948C9.24829 6.06628 9.26794 5.70667 9.26794 5.21753L9.26794 3.88416C9.26794 3.49805 9.2478 3.21094 9.20593 3.021C9.16492 2.8335 9.08911 2.65015 8.97595 2.4718C8.86609 2.29407 8.7063 2.15039 8.50073 2.03955C8.29504 1.92932 8.04907 1.8728 7.76233 1.8728C7.42175 1.8728 7.14087 1.95923 6.92151 2.13232C6.70215 2.3042 6.54993 2.53247 6.46582 2.81641ZM7.31067 6.09668C7.31067 6.3949 7.53345 6.63867 7.80408 6.63867C8.07483 6.63867 8.29602 6.39514 8.29602 6.09668L8.29602 3.29004C8.29602 2.99194 8.07483 2.74817 7.80408 2.74817C7.53345 2.74817 7.31067 2.9917 7.31067 3.29004L7.31067 6.09668ZM3.87866 7.51367L5.04895 7.51367L5.05005 3.47034L6.4325 0.00671387L5.15283 0.00671387L4.41785 2.57983L3.67224 0L2.40613 0L3.87683 3.47278L3.87866 7.51367Z" clip-rule="evenodd" fill="#5A5A5A" fill-opacity="1.000000" fill-rule="evenodd"/>
</svg>
