<svg width="22.000000" height="13.481445" viewBox="0 0 22 13.4814" fill="none" xmlns="http://www.w3.org/2000/svg" xmlns:xlink="http://www.w3.org/1999/xlink">
	<desc>
			Created with Pixso.
	</desc>
	<defs/>
	<path id="Path" d="M0 6.74C-0.13 3.27 2.87 0.06 6.29 0.02C8.03 -0.14 9.73 0.55 11.05 1.68C10.51 2.28 9.96 2.88 9.37 3.44C8.21 2.72 6.81 2.17 5.45 2.66C3.26 3.29 1.93 5.92 2.74 8.1C3.41 10.38 6.14 11.63 8.27 10.67C9.38 10.27 10.11 9.23 10.43 8.12C9.16 8.09 7.89 8.11 6.62 8.07C6.62 7.31 6.62 6.54 6.62 5.78C8.73 5.78 10.85 5.77 12.97 5.79C13.1 7.66 12.82 9.67 11.62 11.18C9.98 13.33 6.94 13.96 4.47 13.12C1.85 12.24 -0.06 9.56 0 6.74Z" fill="#5A5A5A" fill-opacity="1.000000" fill-rule="evenodd"/>
	<path id="Path" d="M18.01 3.11C18.67 3.11 19.33 3.11 19.99 3.11C19.99 3.79 20 4.49 20 5.17C20.66 5.18 21.33 5.18 22 5.19C22 5.88 22 6.56 22 7.25C21.33 7.25 20.67 7.25 20 7.26C20 7.95 19.99 8.64 19.99 9.33C19.33 9.32 18.66 9.33 18 9.33C18 8.64 18 7.95 17.99 7.26C17.33 7.25 16.66 7.25 16 7.25C16 6.56 16 5.87 16 5.19C16.66 5.18 17.32 5.18 17.99 5.17C17.99 4.49 18 3.79 18.01 3.11Z" fill="#5A5A5A" fill-opacity="1.000000" fill-rule="evenodd"/>
</svg>
