<svg width="20.000000" height="20.202026" viewBox="0 0 20 20.202" fill="none" xmlns="http://www.w3.org/2000/svg" xmlns:xlink="http://www.w3.org/1999/xlink">
	<desc>
			Created with Pixso.
	</desc>
	<defs/>
	<path id="Shape" d="M6.25 0L13.75 0C17.2013 0 20 2.82703 20 6.31311L20 13.8889C20 17.375 17.2013 20.202 13.75 20.202L6.25 20.202C2.79871 20.202 0 17.375 0 13.8889L0 6.31311C0 2.82703 2.79871 0 6.25 0ZM13.75 18.3081C16.1625 18.3081 18.125 16.3258 18.125 13.8889L18.125 6.31311C18.125 3.87622 16.1625 1.89392 13.75 1.89392L6.25 1.89392C3.83752 1.89392 1.875 3.87622 1.875 6.31311L1.875 13.8889C1.875 16.3258 3.83752 18.3081 6.25 18.3081L13.75 18.3081Z" clip-rule="evenodd" fill="#666666" fill-opacity="1.000000" fill-rule="evenodd"/>
	<path id="Shape" d="M5 10.1011C5 7.31189 7.23877 5.05054 10 5.05054C12.7612 5.05054 15 7.31189 15 10.1011C15 12.8901 12.7612 15.1515 10 15.1515C7.23877 15.1515 5 12.8901 5 10.1011ZM6.875 10.1011C6.875 11.8409 8.27747 13.2576 10 13.2576C11.7225 13.2576 13.125 11.8409 13.125 10.1011C13.125 8.35986 11.7225 6.94446 10 6.94446C8.27747 6.94446 6.875 8.35986 6.875 10.1011Z" clip-rule="evenodd" fill="#5A5A5A" fill-opacity="1.000000" fill-rule="evenodd"/>
	<ellipse id="Oval" cx="15.000000" cy="4.040405" rx="1.000000" ry="1.010101" fill="#5A5A5A" fill-opacity="1.000000"/>
</svg>
