<svg width="20.000000" height="17.894775" viewBox="0 0 20 17.8948" fill="none" xmlns="http://www.w3.org/2000/svg" xmlns:xlink="http://www.w3.org/1999/xlink">
	<desc>
			Created with Pixso.
	</desc>
	<defs/>
	<path id="Path Copy 6" d="M0 4.77C1.75 3.34 4.26 0.21 6.21 0.21C8.16 0.21 8.64 2.55 8.9 4.67C9.17 6.78 9.94 11.42 10.97 11.42C12 11.42 14.35 7.32 14.22 5.74C14.09 4.15 12.38 4.39 11.45 4.84C12.31 1.68 14.3 0 16.84 0C19.38 0 20 1.82 20 4.05C20 7.46 13.19 17.89 9.08 17.89C6.53 17.89 5.9 14.09 5.39 12.21C4.87 10.33 3.86 5.4 2.67 5.08C2.21 5 0.91 6.05 0.91 6.05L0 4.77Z" fill="#5A5A5A" fill-opacity="1.000000" fill-rule="evenodd"/>
</svg>
