<svg width="15.000000" height="20.202026" viewBox="0 0 15 20.202" fill="none" xmlns="http://www.w3.org/2000/svg" xmlns:xlink="http://www.w3.org/1999/xlink">
	<desc>
			Created with Pixso.
	</desc>
	<defs/>
	<path id="XMLID_799_" d="M13.05 2.07C11.74 0.73 9.92 0 7.93 0C4.89 0 3.03 1.31 2 2.42C0.72 3.78 0 5.59 0 7.38C0 9.63 0.88 11.35 2.37 12C2.47 12.04 2.57 12.06 2.67 12.06C2.98 12.06 3.23 11.84 3.32 11.49C3.37 11.29 3.49 10.8 3.54 10.59C3.65 10.16 3.56 9.96 3.32 9.66C2.89 9.13 2.69 8.49 2.69 7.66C2.69 5.19 4.42 2.58 7.64 2.58C10.19 2.58 11.77 4.11 11.77 6.58C11.77 8.14 11.45 9.58 10.88 10.64C10.48 11.38 9.77 12.26 8.69 12.26C8.23 12.26 7.81 12.05 7.54 11.7C7.29 11.37 7.21 10.93 7.31 10.48C7.42 9.97 7.58 9.44 7.73 8.93C8 7.99 8.26 7.11 8.26 6.4C8.26 5.19 7.56 4.38 6.51 4.38C5.19 4.38 4.15 5.81 4.15 7.63C4.15 8.52 4.37 9.19 4.47 9.45C4.3 10.2 3.31 14.66 3.12 15.5C3.01 15.99 2.36 19.87 3.44 20.17C4.66 20.52 5.76 16.75 5.87 16.32C5.96 15.97 6.27 14.66 6.47 13.85C7.05 14.45 8 14.86 8.93 14.86C10.67 14.86 12.24 14.03 13.34 12.53C14.41 11.06 15 9.03 15 6.79C15 5.04 14.29 3.32 13.05 2.07Z" fill="#5A5A5A" fill-opacity="1.000000" fill-rule="evenodd"/>
</svg>
