<svg width="20.000000" height="13.412720" viewBox="0 0 20 13.4127" fill="none" xmlns="http://www.w3.org/2000/svg" xmlns:xlink="http://www.w3.org/1999/xlink">
	<desc>
			Created with Pixso.
	</desc>
	<defs/>
	<path id="Shape Copy 4" d="M8.07251 5.99512C8.07251 5.99512 9.96216 5.84802 9.96216 3.49609C9.96216 1.15063 8.41663 0 6.45435 0L0 0L0 13.1339L6.45386 13.1339C6.45386 13.1339 10.3964 13.262 10.3964 9.25464C10.3967 9.25464 10.5658 5.99512 8.07251 5.99512ZM12.9805 2.3905L12.9805 0.773315L18.1003 0.773315L18.1003 2.3905L12.9805 2.3905ZM6.4541 2.33264L2.84387 2.33264L2.84387 5.26624L6.23071 5.26624C6.81641 5.26624 7.32959 5.06787 7.32959 3.70032C7.32959 2.33264 6.4541 2.33264 6.4541 2.33264ZM15.649 3.34253C10.8917 3.34253 10.8855 8.35974 10.8855 8.38562C10.8855 8.38562 10.5596 13.4091 15.649 13.4091C15.649 13.4091 19.8934 13.6646 19.8934 9.91296L17.714 9.91296C17.714 9.91296 17.7863 11.3253 15.7216 11.3253C15.7216 11.3253 13.5421 11.4789 13.5421 9.04358L19.9659 9.04358C19.9659 9.04358 20.6724 3.34253 15.649 3.34253ZM15.6975 5.26624C13.7834 5.26624 13.5177 7.28589 13.5177 7.28589L17.5872 7.28589C17.5872 7.28589 17.6174 5.26624 15.6975 5.26624ZM6.27319 10.8013L2.84387 10.8013L2.84387 7.28589L6.4541 7.28589C6.4541 7.28589 7.76453 7.27319 7.7583 9.0946C7.7583 10.6288 6.7865 10.7886 6.27319 10.8013Z" clip-rule="evenodd" fill="#5A5A5A" fill-opacity="1.000000" fill-rule="evenodd"/>
</svg>
