<svg width="20.000000" height="16.790161" viewBox="0 0 20 16.7902" fill="none" xmlns="http://www.w3.org/2000/svg" xmlns:xlink="http://www.w3.org/1999/xlink">
	<desc>
			Created with Pixso.
	</desc>
	<defs/>
	<path id="Path Copy 4" d="M20 1.98C19.26 2.32 18.47 2.55 17.64 2.65C18.49 2.12 19.14 1.3 19.44 0.3C18.65 0.79 17.77 1.14 16.84 1.33C16.09 0.51 15.02 0 13.84 0C11.58 0 9.74 1.89 9.74 4.23C9.74 4.57 9.77 4.89 9.84 5.2C6.43 5.02 3.41 3.34 1.39 0.77C1.03 1.4 0.83 2.12 0.83 2.9C0.83 4.37 1.56 5.67 2.66 6.43C1.98 6.41 1.35 6.22 0.8 5.9C0.8 5.92 0.8 5.93 0.8 5.95C0.8 8.01 2.21 9.72 4.09 10.11C3.75 10.21 3.38 10.26 3.01 10.26C2.74 10.26 2.49 10.23 2.24 10.18C2.76 11.87 4.27 13.09 6.07 13.13C4.67 14.26 2.9 14.94 0.97 14.94C0.64 14.94 0.32 14.92 0 14.88C1.81 16.08 3.97 16.79 6.28 16.79C13.83 16.79 17.96 10.33 17.96 4.72C17.96 4.54 17.96 4.36 17.95 4.18C18.75 3.58 19.45 2.83 20 1.98L20 1.98Z" fill="#5A5A5A" fill-opacity="1.000000" fill-rule="evenodd"/>
</svg>
