<svg width="20.000000" height="20.202026" viewBox="0 0 20 20.202" fill="none" xmlns="http://www.w3.org/2000/svg" xmlns:xlink="http://www.w3.org/1999/xlink">
	<desc>
			Created with Pixso.
	</desc>
	<defs/>
	<path id="Shape Copy 5" d="M9.99976 0C4.48584 0 0 4.53162 0 10.1012C0 15.6708 4.48584 20.202 9.99976 20.202C15.5138 20.202 20 15.671 20 10.1012C20 4.53162 15.5138 0 9.99976 0ZM15.566 3.70056C14.0782 2.38184 12.1305 1.58118 9.99976 1.58118C9.34509 1.58118 8.70764 1.65747 8.09509 1.8009C8.43884 2.2699 9.88306 4.29004 11.2026 6.72949C14.0533 5.64014 15.3306 4.02551 15.566 3.70056ZM6.37085 2.40906C6.66211 2.81482 8.10864 4.85645 9.46204 7.27637C5.82983 8.24207 2.60425 8.30505 1.82581 8.30505L1.74316 8.30505C2.30237 5.69824 4.04382 3.5321 6.37085 2.40906ZM16.58 4.76746C17.7206 6.19727 18.4139 8.00305 18.4458 9.9707C18.0663 9.89197 16.4589 9.58887 14.538 9.58887C13.9182 9.58887 13.2659 9.62024 12.6118 9.7019C12.5566 9.56616 12.5013 9.43091 12.4434 9.29419C12.2738 8.89075 12.0909 8.49048 11.9017 8.09607C14.8582 6.86414 16.2842 5.15454 16.58 4.76746ZM1.55469 9.90381C1.55249 9.97388 1.55139 10.0442 1.55139 10.1145C1.55139 12.2811 2.35559 14.2607 3.67883 15.7686C4.03589 15.1718 6.35681 11.5201 10.5795 10.1409C10.6722 10.1102 10.7656 10.0828 10.8604 10.0552C10.6588 9.59851 10.4421 9.14148 10.2145 8.69116C6.46423 9.81677 2.82495 9.90442 1.77649 9.90442C1.67981 9.90442 1.60522 9.90442 1.55469 9.90381ZM13.1658 11.1514C14.2164 14.0824 14.6718 16.4856 14.785 17.1431C16.6349 15.8539 17.9525 13.8397 18.334 11.5122C18.0131 11.413 16.6318 11.0221 14.866 11.0221C14.3284 11.0221 13.755 11.0586 13.1658 11.1514ZM9.99976 18.6472C8.06201 18.6472 6.2738 17.9834 4.84692 16.8706C5.08826 16.392 6.84009 13.202 11.4675 11.5732C11.4703 11.572 11.4734 11.5709 11.4768 11.5701C12.6371 14.6254 13.1285 17.1896 13.2633 17.9843C12.2592 18.4113 11.1564 18.6472 9.99976 18.6472Z" clip-rule="evenodd" fill="#5A5A5A" fill-opacity="1.000000" fill-rule="evenodd"/>
</svg>
